<?xml version="1.0" standalone="no"?>
<!DOCTYPE svg PUBLIC "-//W3C//DTD SVG 20010904//EN"
 "http://www.w3.org/TR/2001/REC-SVG-20010904/DTD/svg10.dtd">
<svg version="1.0" xmlns="http://www.w3.org/2000/svg"
 width="33.000000pt" height="33.000000pt" viewBox="0 0 33.000000 33.000000"
 preserveAspectRatio="xMidYMid meet">

<g transform="translate(0.000000,33.000000) scale(0.100000,-0.100000)"
fill="#000000" stroke="none">
<path d="M0 320 c0 -5 9 -10 20 -10 18 0 20 -7 20 -88 0 -55 4 -92 12 -100 15
-15 228 -17 228 -2 0 6 -43 10 -110 10 -67 0 -110 4 -110 10 0 6 39 10 98 10
110 0 118 4 147 73 28 68 30 67 -115 67 -123 0 -130 1 -130 20 0 16 -7 20 -30
20 -17 0 -30 -4 -30 -10z m300 -66 c0 -9 -9 -32 -21 -50 l-21 -34 -99 0 -99 0
0 50 0 50 120 0 c104 0 120 -2 120 -16z"/>
<path d="M56 74 c-9 -8 -16 -19 -16 -24 0 -11 29 -40 40 -40 11 0 40 29 40 40
0 11 -29 40 -40 40 -5 0 -16 -7 -24 -16z m44 -24 c0 -13 -7 -20 -20 -20 -13 0
-20 7 -20 20 0 13 7 20 20 20 13 0 20 -7 20 -20z"/>
<path d="M216 74 c-9 -8 -16 -19 -16 -24 0 -11 29 -40 40 -40 11 0 40 29 40
40 0 11 -29 40 -40 40 -5 0 -16 -7 -24 -16z m44 -24 c0 -13 -7 -20 -20 -20
-13 0 -20 7 -20 20 0 13 7 20 20 20 13 0 20 -7 20 -20z"/>
</g>
</svg>
