<?xml version="1.0" standalone="no"?>
<!DOCTYPE svg PUBLIC "-//W3C//DTD SVG 20010904//EN"
 "http://www.w3.org/TR/2001/REC-SVG-20010904/DTD/svg10.dtd">
<svg version="1.0" xmlns="http://www.w3.org/2000/svg"
 width="33.000000pt" height="33.000000pt" viewBox="0 0 33.000000 33.000000"
 preserveAspectRatio="xMidYMid meet">

<g transform="translate(0.000000,33.000000) scale(0.100000,-0.100000)"
fill="#4e489b" stroke="none">
<path d="M0 170 l0 -150 160 0 160 0 0 150 0 150 -160 0 -160 0 0 -150z m300
0 l0 -130 -140 0 -140 0 0 130 0 130 140 0 140 0 0 -130z"/>
<path d="M50 262 c0 -4 25 -32 55 -62 l55 -55 57 57 c31 32 54 61 50 65 -4 4
-30 -15 -57 -42 l-50 -49 -48 47 c-46 46 -62 56 -62 39z"/>
<path d="M80 115 c-18 -19 -30 -38 -27 -42 8 -7 77 55 77 69 0 16 -17 7 -50
-27z"/>
<path d="M190 142 c0 -14 69 -76 77 -69 3 4 -9 23 -27 42 -33 34 -50 43 -50
27z"/>
</g>
</svg>
