<?xml version="1.0" standalone="no"?>
<!DOCTYPE svg PUBLIC "-//W3C//DTD SVG 20010904//EN"
 "http://www.w3.org/TR/2001/REC-SVG-20010904/DTD/svg10.dtd">
<svg version="1.0" xmlns="http://www.w3.org/2000/svg"
 width="33.000000pt" height="33.000000pt" viewBox="0 0 33.000000 33.000000"
 preserveAspectRatio="xMidYMid meet">

<g transform="translate(0.000000,33.000000) scale(0.100000,-0.100000)"
fill="#4e489b" stroke="none">
<path d="M75 250 c-43 -44 -76 -83 -72 -87 4 -4 41 26 82 67 l75 74 75 -74
c41 -41 78 -71 82 -67 6 7 -144 167 -157 167 -3 0 -41 -36 -85 -80z"/>
<path d="M97 212 l-57 -58 0 -72 0 -72 50 0 50 0 0 40 c0 33 3 40 20 40 17 0
20 -7 20 -40 l0 -40 50 0 50 0 0 73 0 73 -58 57 c-32 31 -60 57 -63 57 -2 0
-30 -26 -62 -58z m115 -19 c46 -46 48 -49 48 -105 0 -58 0 -58 -30 -58 -28 0
-30 2 -30 40 l0 40 -40 0 -40 0 0 -40 c0 -38 -2 -40 -30 -40 -30 0 -30 0 -30
57 0 55 2 59 47 105 26 26 50 48 52 48 3 0 27 -21 53 -47z"/>
</g>
</svg>
