<?xml version="1.0" standalone="no"?>
<!DOCTYPE svg PUBLIC "-//W3C//DTD SVG 20010904//EN"
 "http://www.w3.org/TR/2001/REC-SVG-20010904/DTD/svg10.dtd">
<svg version="1.0" xmlns="http://www.w3.org/2000/svg"
 width="33.000000pt" height="33.000000pt" viewBox="0 0 33.000000 33.000000"
 preserveAspectRatio="xMidYMid meet">

<g transform="translate(0.000000,33.000000) scale(0.100000,-0.100000)"
fill="#000000" stroke="none">
<path d="M190 314 c-11 -12 -10 -18 3 -32 16 -15 18 -15 34 0 13 14 14 20 3
32 -7 9 -16 16 -20 16 -4 0 -13 -7 -20 -16z m30 -14 c0 -5 -4 -10 -10 -10 -5
0 -10 5 -10 10 0 6 5 10 10 10 6 0 10 -4 10 -10z"/>
<path d="M96 304 c-9 -8 -16 -19 -16 -24 0 -11 29 -40 40 -40 11 0 40 29 40
40 0 5 -7 16 -16 24 -8 9 -19 16 -24 16 -5 0 -16 -7 -24 -16z m44 -24 c0 -13
-7 -20 -20 -20 -13 0 -20 7 -20 20 0 13 7 20 20 20 13 0 20 -7 20 -20z"/>
<path d="M100 210 c0 -5 5 -10 10 -10 6 0 10 -13 10 -28 0 -21 -15 -43 -60
-87 -33 -33 -60 -63 -60 -67 0 -4 72 -8 160 -8 88 0 160 4 160 8 0 4 -27 34
-60 67 -45 44 -60 66 -60 87 0 15 5 28 10 28 6 0 10 5 10 10 0 6 -27 10 -60
10 -33 0 -60 -4 -60 -10z m80 -42 c0 -21 9 -41 27 -60 l27 -28 -74 0 -74 0 27
28 c18 19 27 39 27 60 0 25 4 32 20 32 16 0 20 -7 20 -32z m90 -123 c11 -13
-2 -15 -110 -15 -108 0 -121 2 -110 15 10 11 35 15 110 15 75 0 100 -4 110
-15z"/>
</g>
</svg>
