<?xml version="1.0" standalone="no"?>
<!DOCTYPE svg PUBLIC "-//W3C//DTD SVG 20010904//EN"
 "http://www.w3.org/TR/2001/REC-SVG-20010904/DTD/svg10.dtd">
<svg version="1.0" xmlns="http://www.w3.org/2000/svg"
 width="33.000000pt" height="33.000000pt" viewBox="0 0 33.000000 33.000000"
 preserveAspectRatio="xMidYMid meet">

<g transform="translate(0.000000,33.000000) scale(0.100000,-0.100000)"
fill="#4e489b" stroke="none">
<path d="M20 230 c0 -60 4 -100 10 -100 6 0 10 37 10 90 l0 90 90 0 90 0 0
-45 c0 -43 1 -45 30 -45 29 0 30 -2 30 -45 0 -25 5 -45 10 -45 6 0 10 25 10
55 0 54 0 55 -30 55 -29 0 -30 2 -30 45 l0 45 -110 0 -110 0 0 -100z"/>
<path d="M80 230 c0 -5 23 -10 50 -10 28 0 50 5 50 10 0 6 -22 10 -50 10 -27
0 -50 -4 -50 -10z"/>
<path d="M80 170 c0 -6 33 -10 80 -10 47 0 80 4 80 10 0 6 -33 10 -80 10 -47
0 -80 -4 -80 -10z"/>
<path d="M0 60 l0 -50 160 0 160 0 0 50 0 50 -65 0 c-37 0 -65 -4 -65 -10 0
-5 -13 -10 -30 -10 -16 0 -30 5 -30 10 0 6 -28 10 -65 10 l-65 0 0 -50z m110
20 c0 -5 23 -10 50 -10 28 0 50 5 50 10 0 6 20 10 45 10 43 0 45 -1 45 -30 l0
-30 -140 0 -140 0 0 30 c0 29 2 30 45 30 25 0 45 -4 45 -10z"/>
<path d="M260 60 c0 -5 5 -10 10 -10 6 0 10 5 10 10 0 6 -4 10 -10 10 -5 0
-10 -4 -10 -10z"/>
</g>
</svg>
